<svg width="24" height="24" viewBox="0 0 24 24" fill="none" xmlns="http://www.w3.org/2000/svg">
<path d="M4.45354 0.5L3.29696 1.71603L5.01786 3.52711L6.17279 2.31108L4.45354 0.5ZM19.5473 0.5L17.8264 2.31108L18.9821 3.52711L20.7022 1.7169L19.5473 0.5ZM12 1.03969C11.7289 1.042 11.4551 1.06045 11.1786 1.09504H11.1539C7.82221 1.49722 5.17064 4.33146 4.70982 7.82388C4.34182 10.6348 5.44254 13.1836 7.27679 14.8252C8.02698 15.4995 8.53446 16.4246 8.71429 17.4458V22.6351H10.5871C10.873 23.1515 11.3946 23.5 12 23.5C12.6054 23.5 13.127 23.1515 13.4129 22.6351H15.2857V19.1756H15.3629V18.1481C15.3629 16.8801 15.9889 15.6018 17.0058 14.6081C18.3661 13.1741 19.3929 11.1373 19.3929 8.79775C19.3929 4.52519 16.0529 0.999906 12 1.03969ZM12 2.76947C15.1748 2.72277 17.75 5.45928 17.75 8.79775C17.75 10.6088 16.9532 12.2037 15.85 13.3644L15.8763 13.392C14.7805 14.4568 14.0717 15.8907 13.872 17.4466H10.2791C10.0984 15.9642 9.49464 14.5294 8.35368 13.5002C6.90221 12.2028 6.03725 10.2482 6.32639 8.04097C6.68536 5.31657 8.78493 3.1258 11.3576 2.82569C11.5701 2.79467 11.784 2.77619 11.9984 2.77033L12 2.76947ZM0.5 8.79775V10.5275H2.96429V8.79775H0.5ZM21.0357 8.79775V10.5275H23.5V8.79775H21.0357ZM5.01786 15.7982L3.29779 17.6084L4.45354 18.8253L6.17196 17.0142L5.01786 15.7982ZM18.9821 15.7982L17.8272 17.0142L19.5465 18.8253L20.7022 17.6084L18.9821 15.7982ZM10.3571 19.1764H13.6429V20.9062H10.3571V19.1764Z" fill="#E6E6E6"/>
</svg>
