<svg width="20" height="21" viewBox="0 0 20 21" fill="none" xmlns="http://www.w3.org/2000/svg">
<g clip-path="url(#clip0_1207_874)">
<path d="M16.1333 3.30335C15.2889 2.50335 14.3444 1.88113 13.3 1.43669C12.2556 0.992241 11.1556 0.770018 10 0.770018C8.84445 0.770018 7.73334 0.992241 6.66667 1.43669C5.6 1.88113 4.66667 2.50335 3.86667 3.30335C3.06667 4.10335 2.44445 5.03668 2 6.10335C1.55556 7.17002 1.33334 8.28113 1.33334 9.43669C1.33334 10.5922 1.55556 11.6922 2 12.7367C2.44445 13.7811 3.06667 14.7256 3.86667 15.57L8.46667 20.17C8.86667 20.57 9.36667 20.77 9.96667 20.77C10.5667 20.77 11.0889 20.57 11.5333 20.17L16.1333 15.57C16.9333 14.7256 17.5556 13.7811 18 12.7367C18.4444 11.6922 18.6667 10.5922 18.6667 9.43669C18.6667 8.28113 18.4444 7.17002 18 6.10335C17.5556 5.03668 16.9333 4.10335 16.1333 3.30335ZM15.2667 14.7034L10.6667 19.3034C10.4889 19.4811 10.2667 19.57 10 19.57C9.73334 19.57 9.48889 19.4811 9.26667 19.3034L4.66667 14.7034C3.95556 13.9922 3.42222 13.1811 3.06667 12.27C2.71111 11.3589 2.53334 10.4034 2.53334 9.40335C2.53334 8.40335 2.71111 7.4478 3.06667 6.53668C3.42222 5.62557 3.95556 4.82557 4.66667 4.13668C5.37778 3.4478 6.18889 2.91446 7.1 2.53669C8.01111 2.15891 8.96667 1.97002 9.96667 1.97002C10.9667 1.97002 11.9222 2.15891 12.8333 2.53669C13.7444 2.91446 14.5556 3.43669 15.2667 4.10335C16.2444 5.08113 16.9 6.21446 17.2333 7.50335C17.5667 8.79224 17.5667 10.0811 17.2333 11.37C16.9 12.6589 16.2444 13.77 15.2667 14.7034ZM10 6.30335C9.15556 6.30335 8.42222 6.61446 7.8 7.23669C7.17778 7.85891 6.86667 8.59224 6.86667 9.43669C6.86667 10.2811 7.17778 11.0034 7.8 11.6034C8.42222 12.2034 9.15556 12.5034 10 12.5034C10.8444 12.5034 11.5667 12.2034 12.1667 11.6034C12.7667 11.0034 13.0667 10.2811 13.0667 9.43669C13.0667 8.59224 12.7667 7.85891 12.1667 7.23669C11.5667 6.61446 10.8444 6.30335 10 6.30335ZM10 11.37C9.46667 11.37 9.01111 11.1811 8.63334 10.8034C8.25556 10.4256 8.06667 9.97002 8.06667 9.43669C8.06667 8.90335 8.25556 8.4478 8.63334 8.07002C9.01111 7.69224 9.46667 7.50335 10 7.50335C10.5333 7.50335 10.9889 7.69224 11.3667 8.07002C11.7444 8.4478 11.9333 8.90335 11.9333 9.43669C11.9333 9.97002 11.7444 10.4256 11.3667 10.8034C10.9889 11.1811 10.5333 11.37 10 11.37Z" fill="#011825"/>
</g>
<defs>
<clipPath id="clip0_1207_874">
<rect width="20" height="20" fill="white" transform="matrix(1 0 0 -1 0 20.77)"/>
</clipPath>
</defs>
</svg>
