<svg width="190" height="42" viewBox="0 0 190 42" fill="none" xmlns="http://www.w3.org/2000/svg">
<g clip-path="url(#clip0_1071_5)">
<mask id="mask0_1071_5" style="mask-type:luminance" maskUnits="userSpaceOnUse" x="0" y="0" width="190" height="42">
<path d="M190 0H0V42H190V0Z" fill="white"/>
</mask>
<g mask="url(#mask0_1071_5)">
<mask id="mask1_1071_5" style="mask-type:luminance" maskUnits="userSpaceOnUse" x="0" y="0" width="186" height="42">
<path d="M185.292 0H0V42H185.292V0Z" fill="white"/>
</mask>
<g mask="url(#mask1_1071_5)">
<path d="M109.525 18.9432C108.966 16.389 107.364 14.694 105.087 13.5881C104.151 13.1364 103.136 12.843 102.093 12.4519C102.445 12.2773 102.759 12.1329 103.066 11.9699C106.293 10.2773 107.285 6.13522 105.092 3.42044C104.198 2.31217 102.962 1.72777 101.618 1.35757C98.156 0.400644 94.6193 0.896569 91.071 0.747559V28.5567C94.1723 28.5567 97.213 28.6242 100.251 28.5334C102.405 28.4682 104.449 27.8512 106.298 26.687C108.966 25.0083 110.203 22.0165 109.527 18.9432H109.525ZM105.048 22.5567C104.44 24.8174 103.01 26.2959 100.875 26.701C99.0245 27.0503 97.1106 27.0433 95.1618 27.1993V12.6824H95.1642V2.16083C96.7916 2.38435 98.3516 2.43324 99.8254 2.83836C101.485 3.29936 102.221 4.78481 102.338 6.58225C102.393 7.4507 102.347 8.35175 102.203 9.20856C101.877 11.1434 100.778 12.3145 99.1339 12.7103C99.7858 12.7615 100.428 12.8686 101.069 13.0922C103.311 13.8675 104.666 15.5113 105.159 17.9839C105.467 19.5252 105.451 21.0549 105.045 22.559L105.048 22.5567Z" fill="#011825"/>
<path d="M122.298 0.824219V13.4878C122.021 12.8498 121.674 12.2584 121.234 11.8184C119.995 10.5797 118.88 8.62864 118.326 7.5716V0.824219H122.3H122.298Z" fill="#011825"/>
<path d="M122.298 19.8834V28.5726H118.324V12.4468C119.448 14.0929 120.88 15.6203 121.425 16.3514C122.242 17.4573 122.296 19.3805 122.296 19.8811L122.298 19.8834Z" fill="#011825"/>
<path d="M35.9023 12.7264V0.798601C34.5426 0.812571 33.1759 0.849823 31.8069 0.793945V28.6007C33.1805 28.6007 34.5472 28.6147 35.9023 28.6217V12.7264Z" fill="#011825"/>
<path d="M35.9069 12.7266V2.20507C37.5343 2.42626 39.0943 2.47515 40.5634 2.88493C42.2258 3.34593 42.9616 4.83138 43.0803 6.62882C43.1315 7.49494 43.0896 8.39599 42.9406 9.2528C42.6147 11.1853 41.518 12.3611 39.8766 12.7522C40.5262 12.8035 41.1688 12.9129 41.8091 13.1364C44.0512 13.9117 45.4039 15.5532 45.8999 18.0281C46.0605 18.843 46.135 19.651 46.1094 20.4565H46.1141V28.6218H49.7998L49.8044 28.6428H51.1106C51.1106 28.6428 50.4563 28.1469 50.4563 26.7965C50.4563 26.7243 50.4517 26.6544 50.4424 26.5846V20.1865H50.4261C50.4028 19.7883 50.3492 19.3902 50.2608 18.9897C49.7043 16.4356 48.1024 14.7359 45.8254 13.6347C44.8894 13.183 43.8743 12.8849 42.8312 12.4985C43.1828 12.3192 43.4971 12.1771 43.8021 12.0142C47.0314 10.3215 48.0209 6.17713 45.83 3.46467C44.9336 2.35874 43.6973 1.77201 42.3516 1.40181C40.2258 0.815082 38.0698 0.775501 35.8999 0.798784V12.7243H35.9045L35.9069 12.7266Z" fill="#011825"/>
<path d="M35.9231 27.2432H35.9021V28.6239C35.9021 28.6239 35.9161 28.6239 35.9231 28.6239V27.2432Z" fill="#011825"/>
<path d="M15.4249 20.4098H4.85914L1.56461 28.631H0L11.4668 0L22.936 28.631H18.7194L15.4249 20.4098ZM5.48312 18.8475H14.8033L10.1443 7.19441L5.48545 18.8475H5.48312Z" fill="#011825"/>
<path d="M74.2235 20.4098H63.66L60.3655 28.631H58.7986L70.2654 0L81.7345 28.631H77.518L74.2235 20.4098ZM64.2817 18.8475H73.6018L68.9429 7.19441L64.284 18.8475H64.2817Z" fill="#011825"/>
<path d="M146.775 20.4098H136.212L132.917 28.631H131.35L142.817 0L154.286 28.631H150.07L146.775 20.4098ZM136.834 18.8475H146.154L141.495 7.19441L136.836 18.8475H136.834Z" fill="#011825"/>
<path d="M184.817 0.709948V29.0941L164.673 7.65523V28.6215H163.146V0.237305L183.29 21.6762V0.709948H184.817Z" fill="#011825"/>
<path d="M142.522 34.7567V37.8324H145.236V38.2561H142.522V41.4878H145.767V41.9115H141.432V34.333H145.767V34.7567H142.522Z" fill="#011825"/>
<path d="M151.616 35.1453C151.616 35.1453 150.957 34.6494 150.063 34.6494C149.36 34.6494 148.743 34.973 148.743 35.6249C148.743 36.2769 149.304 36.6471 150.205 37.2664C151.476 38.1488 152.366 38.8124 152.366 40.0068C152.366 41.5365 150.948 41.9998 149.823 41.9998C148.459 41.9998 147.665 41.3199 147.665 41.3199V40.6773C147.665 40.6773 148.538 41.5761 149.83 41.5761C150.747 41.5761 151.369 41.1174 151.369 40.3258C151.369 39.618 150.889 39.1476 149.87 38.4049C148.615 37.4829 147.846 36.9148 147.846 35.9276C147.846 34.7169 148.976 34.2256 150.077 34.2256C150.971 34.2256 151.62 34.5376 151.62 34.5376V35.1453H151.616Z" fill="#011825"/>
<path d="M159.152 34.7567H156.885V41.9115H155.8V34.7567H153.532V34.333H159.155V34.7567H159.152Z" fill="#011825"/>
<path d="M163.972 39.6785H161.104L160.21 41.9113H159.783L162.896 34.1372L166.009 41.9113H164.864L163.97 39.6785H163.972ZM161.274 39.2547H163.804L162.54 36.0906L161.276 39.2547H161.274Z" fill="#011825"/>
<path d="M172.265 34.7567H169.998V41.9115H168.913V34.7567H166.645V34.333H172.268V34.7567H172.265Z" fill="#011825"/>
<path d="M175.448 34.7567V37.8324H178.163V38.2561H175.448V41.4878H178.694V41.9115H174.358V34.333H178.694V34.7567H175.448Z" fill="#011825"/>
<path d="M184.545 35.1453C184.545 35.1453 183.886 34.6494 182.992 34.6494C182.289 34.6494 181.672 34.973 181.672 35.6249C181.672 36.2769 182.233 36.6471 183.134 37.2664C184.405 38.1488 185.295 38.8124 185.295 40.0068C185.295 41.5365 183.877 41.9998 182.752 41.9998C181.388 41.9998 180.594 41.3199 180.594 41.3199V40.6773C180.594 40.6773 181.467 41.5761 182.759 41.5761C183.676 41.5761 184.298 41.1174 184.298 40.3258C184.298 39.618 183.818 39.1476 182.799 38.4049C181.544 37.4829 180.775 36.9148 180.775 35.9276C180.775 34.7169 181.905 34.2256 183.006 34.2256C183.9 34.2256 184.549 34.5376 184.549 34.5376V35.1453H184.545Z" fill="#011825"/>
</g>
</g>
</g>
<defs>
<clipPath id="clip0_1071_5">
<rect width="190" height="42" fill="white"/>
</clipPath>
</defs>
</svg>
