<svg width="190" height="42" viewBox="0 0 190 42" fill="none" xmlns="http://www.w3.org/2000/svg">
<g clip-path="url(#clip0_515_554)">
<mask id="mask0_515_554" style="mask-type:luminance" maskUnits="userSpaceOnUse" x="0" y="0" width="190" height="42">
<path d="M190 0H0V42H190V0Z" fill="white"/>
</mask>
<g mask="url(#mask0_515_554)">
<mask id="mask1_515_554" style="mask-type:luminance" maskUnits="userSpaceOnUse" x="0" y="0" width="186" height="42">
<path d="M185.292 0H0V42H185.292V0Z" fill="white"/>
</mask>
<g mask="url(#mask1_515_554)">
<path d="M109.525 18.9429C108.966 16.3887 107.364 14.6937 105.087 13.5878C104.151 13.1361 103.136 12.8427 102.093 12.4516C102.445 12.277 102.759 12.1326 103.066 11.9696C106.293 10.277 107.285 6.13497 105.092 3.42019C104.198 2.31192 102.962 1.72752 101.618 1.35732C98.1558 0.4004 94.6191 0.896324 91.0708 0.747314V28.5564C94.1721 28.5564 97.2128 28.6239 100.251 28.5331C102.405 28.4679 104.449 27.8509 106.298 26.6867C108.966 25.008 110.203 22.0162 109.527 18.9429H109.525ZM105.048 22.5564C104.44 24.8171 103.01 26.2956 100.875 26.7007C99.0243 27.05 97.1104 27.043 95.1616 27.199V12.6821H95.164V2.16058C96.7914 2.3841 98.3514 2.43299 99.8252 2.83811C101.485 3.29911 102.221 4.78456 102.338 6.582C102.393 7.45045 102.347 8.3515 102.203 9.20831C101.877 11.1431 100.778 12.3142 99.1337 12.71C99.7856 12.7612 100.428 12.8683 101.069 13.0919C103.311 13.8672 104.666 15.511 105.159 17.9836C105.467 19.5249 105.451 21.0546 105.045 22.5587L105.048 22.5564Z" fill="white"/>
<path d="M122.298 0.824219V13.4878C122.021 12.8498 121.674 12.2584 121.234 11.8184C119.995 10.5797 118.88 8.62864 118.326 7.5716V0.824219H122.3H122.298Z" fill="white"/>
<path d="M122.298 19.8836V28.5728H118.324V12.447C119.448 14.0931 120.88 15.6205 121.425 16.3516C122.242 17.4575 122.296 19.3807 122.296 19.8813L122.298 19.8836Z" fill="white"/>
<path d="M35.902 12.7264V0.798601C34.5423 0.812571 33.1756 0.849823 31.8066 0.793945V28.6007C33.1802 28.6007 34.5469 28.6147 35.902 28.6217V12.7264Z" fill="white"/>
<path d="M35.9069 12.7263V2.20483C37.5343 2.42602 39.0943 2.47491 40.5634 2.88469C42.2258 3.34569 42.9616 4.83114 43.0803 6.62858C43.1315 7.4947 43.0896 8.39575 42.9406 9.25256C42.6147 11.185 41.518 12.3608 39.8766 12.7519C40.5262 12.8032 41.1688 12.9126 41.8091 13.1361C44.0512 13.9114 45.4039 15.5529 45.8999 18.0278C46.0605 18.8427 46.135 19.6507 46.1094 20.4562H46.1141V28.6215H49.7998L49.8044 28.6425H51.1106C51.1106 28.6425 50.4563 28.1466 50.4563 26.7962C50.4563 26.724 50.4517 26.6541 50.4424 26.5843V20.1862H50.4261C50.4028 19.788 50.3492 19.3899 50.2608 18.9894C49.7043 16.4353 48.1024 14.7356 45.8254 13.6344C44.8894 13.1827 43.8743 12.8846 42.8312 12.4982C43.1828 12.3189 43.4971 12.1768 43.8021 12.0139C47.0314 10.3212 48.0209 6.17689 45.83 3.46443C44.9336 2.3585 43.6973 1.77177 42.3516 1.40157C40.2258 0.814838 38.0698 0.775257 35.8999 0.79854V12.724H35.9045L35.9069 12.7263Z" fill="white"/>
<path d="M35.9233 27.2434H35.9023V28.6241C35.9023 28.6241 35.9163 28.6241 35.9233 28.6241V27.2434Z" fill="white"/>
<path d="M15.4249 20.4098H4.85914L1.56461 28.631H0L11.4668 0L22.936 28.631H18.7194L15.4249 20.4098ZM5.48312 18.8475H14.8033L10.1443 7.19441L5.48545 18.8475H5.48312Z" fill="white"/>
<path d="M74.2237 20.4098H63.6602L60.3657 28.631H58.7988L70.2656 0L81.7347 28.631H77.5182L74.2237 20.4098ZM64.2819 18.8475H73.602L68.9431 7.19441L64.2842 18.8475H64.2819Z" fill="white"/>
<path d="M146.775 20.4098H136.212L132.917 28.631H131.35L142.817 0L154.286 28.631H150.07L146.775 20.4098ZM136.834 18.8475H146.154L141.495 7.19441L136.836 18.8475H136.834Z" fill="white"/>
<path d="M184.817 0.710192V29.0944L164.673 7.65547V28.6218H163.146V0.237549L183.29 21.6765V0.710192H184.817Z" fill="white"/>
<path d="M142.522 34.7567V37.8324H145.236V38.2561H142.522V41.4878H145.767V41.9115H141.432V34.333H145.767V34.7567H142.522Z" fill="white"/>
<path d="M151.616 35.1455C151.616 35.1455 150.957 34.6496 150.063 34.6496C149.36 34.6496 148.743 34.9732 148.743 35.6251C148.743 36.2771 149.304 36.6473 150.205 37.2666C151.476 38.149 152.366 38.8126 152.366 40.007C152.366 41.5367 150.948 42 149.823 42C148.459 42 147.665 41.3201 147.665 41.3201V40.6775C147.665 40.6775 148.538 41.5763 149.83 41.5763C150.747 41.5763 151.369 41.1176 151.369 40.326C151.369 39.6182 150.889 39.1478 149.87 38.4051C148.615 37.4831 147.846 36.915 147.846 35.9278C147.846 34.7171 148.976 34.2258 150.077 34.2258C150.971 34.2258 151.62 34.5378 151.62 34.5378V35.1455H151.616Z" fill="white"/>
<path d="M159.152 34.7567H156.885V41.9115H155.8V34.7567H153.532V34.333H159.155V34.7567H159.152Z" fill="white"/>
<path d="M163.972 39.6787H161.104L160.21 41.9115H159.783L162.896 34.1375L166.009 41.9115H164.864L163.97 39.6787H163.972ZM161.274 39.255H163.804L162.54 36.0909L161.276 39.255H161.274Z" fill="white"/>
<path d="M172.265 34.7567H169.998V41.9115H168.913V34.7567H166.645V34.333H172.268V34.7567H172.265Z" fill="white"/>
<path d="M175.448 34.7567V37.8324H178.163V38.2561H175.448V41.4878H178.694V41.9115H174.358V34.333H178.694V34.7567H175.448Z" fill="white"/>
<path d="M184.545 35.1455C184.545 35.1455 183.886 34.6496 182.992 34.6496C182.289 34.6496 181.672 34.9732 181.672 35.6251C181.672 36.2771 182.233 36.6473 183.134 37.2666C184.405 38.149 185.295 38.8126 185.295 40.007C185.295 41.5367 183.877 42 182.752 42C181.388 42 180.594 41.3201 180.594 41.3201V40.6775C180.594 40.6775 181.467 41.5763 182.759 41.5763C183.676 41.5763 184.298 41.1176 184.298 40.326C184.298 39.6182 183.818 39.1478 182.799 38.4051C181.544 37.4831 180.775 36.915 180.775 35.9278C180.775 34.7171 181.905 34.2258 183.006 34.2258C183.9 34.2258 184.549 34.5378 184.549 34.5378V35.1455H184.545Z" fill="white"/>
</g>
</g>
</g>
<defs>
<clipPath id="clip0_515_554">
<rect width="190" height="42" fill="white"/>
</clipPath>
</defs>
</svg>
