<svg width="9" height="6" viewBox="0 0 9 6" fill="none" xmlns="http://www.w3.org/2000/svg">
<mask id="path-1-inside-1_513_458" fill="white">
<path d="M0.5 0.810059H8.5V5.81006H0.5V0.810059Z"/>
</mask>
<g clip-path="url(#paint0_diamond_513_458_clip_path)" data-figma-skip-parse="true" mask="url(#path-1-inside-1_513_458)"><g transform="matrix(0.004 0 0 0.005 4.5 0.810059)"><rect x="0" y="0" width="2250" height="2000" fill="url(#paint0_diamond_513_458)" opacity="1" shape-rendering="crispEdges"/><rect x="0" y="0" width="2250" height="2000" transform="scale(1 -1)" fill="url(#paint0_diamond_513_458)" opacity="1" shape-rendering="crispEdges"/><rect x="0" y="0" width="2250" height="2000" transform="scale(-1 1)" fill="url(#paint0_diamond_513_458)" opacity="1" shape-rendering="crispEdges"/><rect x="0" y="0" width="2250" height="2000" transform="scale(-1)" fill="url(#paint0_diamond_513_458)" opacity="1" shape-rendering="crispEdges"/></g></g><path d="M0.5 0.810059V-4.18994H-3.5V0.810059H0.5ZM8.5 0.810059H12.5V-4.18994H8.5V0.810059ZM0.5 0.810059V5.81006H8.5V0.810059V-4.18994H0.5V0.810059ZM8.5 0.810059H4.5V5.81006H8.5H12.5V0.810059H8.5ZM0.5 5.81006H4.5V0.810059H0.5H-3.5V5.81006H0.5Z" data-figma-gradient-fill="{&#34;type&#34;:&#34;GRADIENT_DIAMOND&#34;,&#34;stops&#34;:[{&#34;color&#34;:{&#34;r&#34;:0.10196078568696976,&#34;g&#34;:0.10196078568696976,&#34;b&#34;:0.10196078568696976,&#34;a&#34;:1.0},&#34;position&#34;:0.99999988079071045},{&#34;color&#34;:{&#34;r&#34;:0.0,&#34;g&#34;:0.0,&#34;b&#34;:0.0,&#34;a&#34;:0.0},&#34;position&#34;:1.0}],&#34;stopsVar&#34;:[],&#34;transform&#34;:{&#34;m00&#34;:8.0,&#34;m01&#34;:0.0,&#34;m02&#34;:0.50,&#34;m10&#34;:0.0,&#34;m11&#34;:10.0,&#34;m12&#34;:-4.189941406250},&#34;opacity&#34;:1.0,&#34;blendMode&#34;:&#34;NORMAL&#34;,&#34;visible&#34;:true}" mask="url(#path-1-inside-1_513_458)"/>
<defs>
<clipPath id="paint0_diamond_513_458_clip_path"><path d="M0.5 0.810059V-4.18994H-3.5V0.810059H0.5ZM8.5 0.810059H12.5V-4.18994H8.5V0.810059ZM0.5 0.810059V5.81006H8.5V0.810059V-4.18994H0.5V0.810059ZM8.5 0.810059H4.5V5.81006H8.5H12.5V0.810059H8.5ZM0.5 5.81006H4.5V0.810059H0.5H-3.5V5.81006H0.5Z" mask="url(#path-1-inside-1_513_458)"/></clipPath><linearGradient id="paint0_diamond_513_458" x1="0" y1="0" x2="500" y2="500" gradientUnits="userSpaceOnUse">
<stop offset="1" stop-color="#1A1A1A"/>
<stop offset="1" stop-opacity="0"/>
</linearGradient>
</defs>
</svg>
