<svg width="26" height="27" viewBox="0 0 26 27" fill="none" xmlns="http://www.w3.org/2000/svg">
<path d="M7.42857 23.9951V12.5488H9.40952C9.55397 12.5488 9.69841 12.5648 9.84286 12.597C9.9873 12.6291 10.1317 12.6659 10.2762 12.7073L18.85 15.9732C19.1389 16.0789 19.3712 16.2691 19.547 16.5439C19.7229 16.8187 19.8104 17.1041 19.8095 17.4C19.8095 17.8439 19.6597 18.2033 19.3601 18.478C19.0605 18.7528 18.715 18.8902 18.3238 18.8902H15.0738C14.9706 18.8902 14.8935 18.8852 14.8423 18.875C14.7911 18.8649 14.7238 18.8382 14.6405 18.7951L12.6595 18.0024L12.2571 19.239L14.6405 20.0951C14.6817 20.1163 14.7437 20.1323 14.8262 20.1433C14.9087 20.1543 14.981 20.1594 15.0429 20.1585H23.5238C24.1841 20.1585 24.7619 20.4016 25.2571 20.8878C25.7524 21.374 26 21.9764 26 22.6951L16.1262 26.5L7.42857 23.9951ZM0 26.5V12.5488H4.95238V26.5H0ZM16.7143 8.7439H17.9524V7.47561H16.7143V8.7439ZM14.2381 8.7439H15.4762V7.47561H14.2381V8.7439ZM16.7143 11.2805H17.9524V10.0122H16.7143V11.2805ZM14.2381 11.2805H15.4762V10.0122H14.2381V11.2805ZM21.6976 16.3537C21.4087 15.6561 20.996 15.0431 20.4595 14.5146C19.923 13.9862 19.2627 13.574 18.4786 13.278L9.90476 10.0122H7.42857V6.84146L16.0952 0.5L24.7619 6.84146V16.3537H21.6976Z" fill="#E6E6E6"/>
</svg>
