<svg width="20" height="20" viewBox="0 0 20 20" fill="none" xmlns="http://www.w3.org/2000/svg">
<path d="M17.05 2.91005C16.1331 1.98416 15.041 1.25002 13.8375 0.750416C12.634 0.250812 11.3431 -0.00426317 10.04 5.38951e-05C4.58 5.38951e-05 0.130003 4.45005 0.130003 9.91005C0.130003 11.6601 0.590003 13.3601 1.45 14.8601L0.0500031 20.0001L5.3 18.6201C6.75 19.4101 8.38 19.8301 10.04 19.8301C15.5 19.8301 19.95 15.3801 19.95 9.92005C19.95 7.27005 18.92 4.78005 17.05 2.91005ZM10.04 18.1501C8.56 18.1501 7.11 17.7501 5.84 17.0001L5.54 16.8201L2.42 17.6401L3.25 14.6001L3.05 14.2901C2.22755 12.9771 1.79093 11.4593 1.79 9.91005C1.79 5.37005 5.49 1.67005 10.03 1.67005C12.23 1.67005 14.3 2.53005 15.85 4.09005C16.6176 4.85392 17.2259 5.7626 17.6396 6.76338C18.0533 7.76417 18.2642 8.83714 18.26 9.92005C18.28 14.4601 14.58 18.1501 10.04 18.1501ZM14.56 11.9901C14.31 11.8701 13.09 11.2701 12.87 11.1801C12.64 11.1001 12.48 11.0601 12.31 11.3001C12.14 11.5501 11.67 12.1101 11.53 12.2701C11.39 12.4401 11.24 12.4601 10.99 12.3301C10.74 12.2101 9.94 11.9401 9 11.1001C8.26 10.4401 7.77 9.63005 7.62 9.38005C7.48 9.13005 7.6 9.00005 7.73 8.87005C7.84 8.76005 7.98 8.58005 8.1 8.44005C8.22 8.30005 8.27 8.19005 8.35 8.03005C8.43 7.86005 8.39 7.72005 8.33 7.60005C8.27 7.48005 7.77 6.26005 7.57 5.76005C7.37 5.28005 7.16 5.34005 7.01 5.33005H6.53C6.36 5.33005 6.1 5.39005 5.87 5.64005C5.65 5.89005 5.01 6.49005 5.01 7.71005C5.01 8.93005 5.9 10.1101 6.02 10.2701C6.14 10.4401 7.77 12.9401 10.25 14.0101C10.84 14.2701 11.3 14.4201 11.66 14.5301C12.25 14.7201 12.79 14.6901 13.22 14.6301C13.7 14.5601 14.69 14.0301 14.89 13.4501C15.1 12.8701 15.1 12.3801 15.03 12.2701C14.96 12.1601 14.81 12.1101 14.56 11.9901Z" fill="white"/>
</svg>
